<svg id="Capa_1" enable-background="new 0 0 512 512" height="512" viewBox="0 0 512 512" width="512" xmlns="http://www.w3.org/2000/svg"><g><g><g><g><g><g><g><circle cx="256" cy="256" fill="#ff8d8d" r="256"/></g></g></g></g></g></g><path d="m100.882 305.285 75.098 75.098-10.768 53.182 78.12 78.12c4.198.206 8.42.315 12.668.315 141.385 0 256-114.615 256-256 0-19.532-2.198-38.55-6.341-56.829l-94.541-94.541z" fill="#ff5b5b"/><g><path d="m255.995 305.305-58.676-101.63c-16.999 9.814-22.823 31.551-13.009 48.55l51.165 88.621-30.285 52.455 22.376 32.326 28.429-49.24 10.001-35.297z" fill="#fff"/><path d="m213.117 371.7c-18.882-10.901-43.026-4.432-53.927 14.45s-4.432 43.026 14.45 53.927 43.026 4.432 53.927-14.45 4.432-43.026-14.45-53.927zm-27.633 47.862c-7.54-4.353-10.132-14.029-5.779-21.568 4.353-7.54 14.029-10.132 21.568-5.779 7.54 4.353 10.133 14.029 5.779 21.568-4.353 7.54-14.028 10.132-21.568 5.779z" fill="#6c67d2"/><path d="m256 305.285h-155.118v-200.655h155.118l10.001 100.63z" fill="#6c67d2"/><path d="m122.82 143.145h114.239v123.626h-114.239z" fill="#544f56"/><path d="m256 104.63h155.118v200.655h-155.118z" fill="#534dca" transform="matrix(-1 0 0 -1 667.118 409.916)"/><g><g fill="#ff8d8d"><path d="m114.584 113.953h17.66v17.66h-17.66z"/><path d="m152.466 113.953h17.66v17.66h-17.66z"/><path d="m190.348 113.953h17.66v17.66h-17.66z"/><path d="m228.229 113.953h17.66v17.66h-17.66z"/></g><path d="m379.757 113.454h17.66v17.66h-17.66z" fill="#ff5b5b" transform="matrix(-1 0 0 -1 777.173 244.568)"/><path d="m341.875 113.454h17.66v17.66h-17.66z" fill="#ff5b5b" transform="matrix(-1 0 0 -1 701.409 244.568)"/><path d="m303.993 113.454h17.66v17.66h-17.66z" fill="#ff5b5b" transform="matrix(-1 0 0 -1 625.645 244.568)"/><path d="m266.111 113.454h17.66v17.66h-17.66z" fill="#ff5b5b" transform="matrix(-1 0 0 -1 549.882 244.568)"/></g><g><g fill="#ff8d8d"><path d="m114.584 277.625h17.66v17.66h-17.66z"/><path d="m152.466 277.625h17.66v17.66h-17.66z"/><path d="m190.348 277.625h17.66v17.66h-17.66z"/><path d="m228.229 277.625h17.66v17.66h-17.66z"/></g><path d="m379.757 277.126h17.66v17.66h-17.66z" fill="#ff5b5b" transform="matrix(-1 0 0 -1 777.173 571.912)"/><path d="m341.875 277.126h17.66v17.66h-17.66z" fill="#ff5b5b" transform="matrix(-1 0 0 -1 701.409 571.912)"/><path d="m303.993 277.126h17.66v17.66h-17.66z" fill="#ff5b5b" transform="matrix(-1 0 0 -1 625.645 571.912)"/><path d="m266.111 277.126h17.66v17.66h-17.66z" fill="#ff5b5b" transform="matrix(-1 0 0 -1 549.882 571.912)"/></g><path d="m274.941 143.145h114.239v123.626h-114.239z" fill="#403b41" transform="matrix(-1 0 0 -1 664.121 409.916)"/><g><path d="m314.671 203.675-58.676 101.63v71.082l28.429 49.24 22.376-32.326-30.285-52.455 51.165-88.621c9.815-16.999 3.991-38.736-13.009-48.55z" fill="#e6e6ff"/></g><path d="m284.424 425.627c10.901 18.882 35.045 25.351 53.927 14.45s25.351-35.045 14.45-53.927-35.045-25.351-53.927-14.45-25.351 35.045-14.45 53.927zm20.514-11.844c-4.353-7.54-1.76-17.215 5.779-21.568 7.54-4.353 17.215-1.76 21.568 5.779 4.353 7.54 1.761 17.215-5.779 21.568-7.539 4.353-17.215 1.761-21.568-5.779z" fill="#534dca"/><g><g><g><g><g><g><path d="m240.389 341.091c0-8.619 6.987-15.606 15.606-15.606l10.001 15.606-10.001 15.606c-8.619 0-15.606-6.987-15.606-15.606z" fill="#9cd29a"/></g></g></g></g></g></g><g><g><g><g><g><g><g><path d="m271.611 341.091c0 8.619-6.987 15.606-15.606 15.606v-31.212c8.619 0 15.606 6.987 15.606 15.606z" fill="#00a963"/></g></g></g></g></g></g></g></g></g></svg>